<?xml version="1.0" standalone="no"?>
<!DOCTYPE svg PUBLIC "-//W3C//DTD SVG 20010904//EN"
 "http://www.w3.org/TR/2001/REC-SVG-20010904/DTD/svg10.dtd">
<svg version="1.0" xmlns="http://www.w3.org/2000/svg"
 width="512.000000pt" height="512.000000pt" viewBox="0 0 512.000000 512.000000"
 preserveAspectRatio="xMidYMid meet">
<metadata>
Created by potrace 1.14, written by Peter Selinger 2001-2017
</metadata>
<g transform="translate(0.000000,512.000000) scale(0.100000,-0.100000)"
fill="#000000" stroke="none">
<path d="M2315 5109 c-787 -76 -1502 -519 -1927 -1196 -469 -746 -515 -1701
-120 -2491 401 -800 1176 -1329 2067 -1412 1124 -104 2187 552 2608 1610 213
536 235 1159 61 1711 -252 795 -880 1422 -1677 1674 -309 98 -678 136 -1012
104z m535 -575 c822 -115 1499 -756 1665 -1578 133 -655 -71 -1330 -544 -1805
-496 -497 -1208 -695 -1892 -525 -787 195 -1376 848 -1493 1655 -21 140 -21
418 0 558 118 808 704 1458 1494 1656 97 25 271 52 370 58 89 6 287 -3 400
-19z"/>
<path d="M2505 4185 c-23 -22 -25 -32 -25 -110 0 -78 2 -88 25 -110 15 -16 36
-25 55 -25 19 0 40 9 55 25 23 22 25 32 25 110 0 78 -2 88 -25 110 -15 16 -36
25 -55 25 -19 0 -40 -9 -55 -25z"/>
<path d="M1424 3750 c-28 -11 -54 -48 -54 -78 0 -15 22 -46 62 -88 54 -56 66
-64 99 -64 29 0 42 6 58 26 35 44 27 70 -41 139 -66 67 -90 79 -124 65z"/>
<path d="M3573 3687 c-54 -55 -63 -69 -63 -100 0 -42 36 -77 80 -77 49 0 160
115 160 165 0 9 -13 30 -29 46 -46 46 -74 40 -148 -34z"/>
<path d="M2505 3675 l-25 -24 0 -448 0 -448 -35 -23 c-19 -12 -45 -38 -57 -57
l-23 -35 -242 0 c-239 0 -242 0 -269 -23 -37 -33 -37 -81 0 -114 27 -23 30
-23 269 -24 l242 0 30 -41 c60 -82 173 -108 262 -61 l42 22 321 -165 c340
-175 346 -178 390 -134 28 28 26 81 -2 107 -13 11 -161 91 -329 177 l-306 156
-6 40 c-8 59 -38 111 -85 145 l-41 30 0 448 -1 448 -25 24 c-15 16 -36 25 -55
25 -19 0 -40 -9 -55 -25z"/>
<path d="M953 2640 c-47 -20 -57 -87 -18 -125 22 -23 32 -25 110 -25 78 0 88
2 110 25 30 29 32 74 6 106 -17 21 -29 24 -103 26 -45 2 -93 -1 -105 -7z"/>
<path d="M3955 2615 c-16 -15 -25 -36 -25 -55 0 -19 9 -40 25 -55 22 -23 32
-25 110 -25 78 0 88 2 110 25 35 34 34 86 -1 114 -22 18 -41 21 -111 21 -76 0
-86 -2 -108 -25z"/>
<path d="M1432 1556 c-74 -72 -84 -106 -42 -151 40 -42 72 -34 146 37 56 54
64 66 64 99 0 29 -6 42 -26 58 -44 35 -70 27 -142 -43z"/>
<path d="M3525 1585 c-40 -40 -33 -69 37 -141 67 -70 93 -83 130 -63 69 37 65
83 -14 165 -52 54 -66 64 -95 64 -23 0 -42 -8 -58 -25z"/>
<path d="M2512 1183 c-26 -10 -42 -62 -42 -138 0 -67 3 -79 25 -100 34 -35 86
-34 114 1 18 22 21 41 21 111 0 76 -2 86 -25 108 -23 24 -61 31 -93 18z"/>
</g>
</svg>
